<?xml version="1.0" standalone="no"?>
<!DOCTYPE svg PUBLIC "-//W3C//DTD SVG 20010904//EN"
 "http://www.w3.org/TR/2001/REC-SVG-20010904/DTD/svg10.dtd">
<svg version="1.0" xmlns="http://www.w3.org/2000/svg"
 width="201.000000pt" height="159.000000pt" viewBox="0 0 201.000000 159.000000"
 preserveAspectRatio="xMidYMid meet">
<metadata>
Created by potrace 1.10, written by Peter Selinger 2001-2011
</metadata>
<g transform="translate(0.000000,159.000000) scale(0.100000,-0.100000)"
fill="#000000" stroke="none">
<path d="M956 1368 c-40 -140 -55 -202 -51 -206 4 -5 197 16 203 22 7 7 -113
230 -125 234 -7 2 -18 -18 -27 -50z m83 -80 c21 -46 36 -84 32 -85 -19 -8
-132 -19 -136 -14 -3 6 16 97 29 134 3 9 8 24 11 32 9 31 27 13 64 -67z"/>
<path d="M1040 1115 c-63 -8 -124 -14 -136 -14 -19 -1 -28 -26 -88 -253 -36
-139 -66 -263 -66 -275 0 -14 6 -23 16 -23 8 0 76 36 151 80 l136 81 151 -51
c83 -27 157 -50 164 -50 14 0 16 41 3 56 -5 5 -30 51 -56 102 l-48 93 30 32
c41 43 53 69 53 114 0 104 -88 134 -310 108z m267 -49 c35 -42 27 -103 -22
-157 -19 -22 -35 -44 -35 -50 0 -12 64 -142 85 -173 8 -11 15 -26 15 -32 0
-17 -4 -16 -188 43 l-113 37 -37 -23 c-20 -12 -45 -25 -54 -28 -10 -3 -18 -9
-18 -14 0 -5 -9 -9 -20 -9 -11 0 -20 -4 -20 -10 0 -5 -6 -10 -13 -10 -7 0 -32
-14 -56 -32 -34 -24 -45 -28 -51 -18 -5 8 -6 18 -3 23 3 5 20 68 39 140 48
190 82 318 86 322 2 2 39 6 83 10 44 4 82 9 85 12 3 3 52 3 108 1 101 -3 105
-4 129 -32z"/>
<path d="M1046 1040 c-84 -10 -101 -25 -121 -105 -8 -33 -19 -69 -24 -80 -14
-31 -31 -100 -31 -124 0 -39 27 -34 100 17 67 48 73 50 108 40 20 -6 42 -14
47 -18 6 -5 27 -11 47 -15 51 -10 57 10 24 68 l-26 44 24 22 c37 35 56 80 44
106 -21 45 -77 59 -192 45z m155 -30 c33 -18 24 -59 -22 -101 l-41 -37 36 -56
c32 -50 37 -71 10 -47 -5 4 -39 20 -76 34 l-68 25 -42 -32 c-24 -18 -59 -44
-79 -59 l-37 -28 23 78 c13 43 33 110 45 150 20 71 21 72 58 76 79 8 174 7
193 -3z"/>
<path d="M668 1076 c-99 -11 -119 -19 -102 -36 13 -13 206 -131 209 -128 1 2
10 35 19 73 9 39 19 78 22 88 6 20 -3 20 -148 3z m122 -12 c0 -16 -24 -100
-30 -108 -5 -4 -25 4 -46 18 -21 14 -42 26 -47 26 -4 0 -24 11 -44 24 l-35 24
69 7 c37 4 72 7 77 9 21 5 56 5 56 0z"/>
<path d="M460 452 c0 -67 10 -92 37 -92 7 0 13 7 13 15 0 8 -4 15 -10 15 -6 0
-10 28 -10 65 0 51 -3 65 -15 65 -12 0 -15 -14 -15 -68z"/>
<path d="M1480 440 c0 -64 3 -80 15 -80 12 0 15 16 15 80 0 64 -3 80 -15 80
-12 0 -15 -16 -15 -80z"/>
<path d="M690 490 c0 -11 -7 -20 -15 -20 -8 0 -15 -7 -15 -15 0 -9 6 -12 15
-9 12 5 15 -3 15 -40 0 -34 4 -46 15 -46 11 0 15 12 15 46 0 41 2 45 22 42 11
-2 23 3 25 10 3 7 -5 12 -21 12 -19 0 -26 5 -26 20 0 11 -7 20 -15 20 -8 0
-15 -9 -15 -20z"/>
<path d="M1030 435 c0 -43 4 -75 10 -75 6 0 10 27 10 60 l0 60 51 0 c43 0 50
-3 47 -17 -2 -12 -16 -20 -42 -23 -37 -5 -65 -30 -34 -30 8 0 25 -11 38 -25
14 -14 34 -25 49 -25 l26 1 -28 21 -28 20 21 15 c16 11 20 23 18 51 l-3 37
-67 3 -68 3 0 -76z"/>
<path d="M780 475 c0 -28 15 -34 24 -9 10 25 7 34 -9 34 -9 0 -15 -9 -15 -25z"/>
<path d="M1585 472 c-27 -6 -65 -32 -65 -45 0 -19 53 -67 74 -67 18 1 17 5
-13 32 -37 33 -36 36 19 68 19 11 11 18 -15 12z"/>
<path d="M537 463 c-4 -3 -7 -25 -7 -49 0 -44 10 -54 56 -54 15 0 24 6 24 16
0 11 -8 15 -27 12 -25 -3 -28 0 -28 27 0 27 4 30 33 33 24 2 32 -1 32 -12 0
-11 -9 -16 -30 -16 -16 0 -30 -5 -30 -11 0 -17 72 -6 83 13 17 26 -9 48 -58
48 -23 0 -45 -3 -48 -7z"/>
<path d="M832 458 c-20 -20 4 -48 43 -48 19 0 35 -4 35 -10 0 -5 -18 -10 -40
-10 -29 0 -40 -4 -40 -15 0 -24 86 -21 100 4 17 33 2 51 -41 51 -21 0 -39 5
-39 10 0 6 16 10 35 10 19 0 35 5 35 10 0 14 -73 13 -88 -2z"/>
<path d="M1210 461 c0 -5 17 -11 38 -13 32 -3 37 -7 40 -30 3 -27 1 -28 -38
-28 -25 0 -39 4 -35 10 3 6 17 10 31 10 13 0 24 5 24 11 0 6 -16 9 -37 7 -68
-6 -52 -68 17 -68 47 0 62 18 58 67 -3 38 -3 38 -50 41 -27 2 -48 -1 -48 -7z"/>
<path d="M1330 415 c0 -42 3 -55 15 -55 11 0 15 12 15 46 0 45 0 45 33 42 30
-3 32 -6 35 -45 4 -58 32 -61 32 -4 0 54 -20 71 -81 71 l-49 0 0 -55z"/>
</g>
</svg>
